<mxfile host="65bd71144e" modified="2021-02-09T09:16:01.022Z" agent="5.0 (Windows NT 10.0; Win64; x64) AppleWebKit/537.36 (KHTML, like Gecko) Code/1.53.0 Chrome/87.0.4280.141 Electron/11.2.1 Safari/537.36" version="13.10.0" etag="Iq5O48QP445aj8bUywgT" type="embed">
    <diagram id="4k0xPzn9xLID0Wd5XAx5" name="Page-1">
        <mxGraphModel dx="1204" dy="537" grid="1" gridSize="10" guides="1" tooltips="1" connect="1" arrows="1" fold="1" page="1" pageScale="1" pageWidth="827" pageHeight="1169" math="0" shadow="0">
            <root>
                <mxCell id="0"/>
                <mxCell id="1" parent="0"/>
                <mxCell id="5" style="edgeStyle=orthogonalEdgeStyle;rounded=0;orthogonalLoop=1;jettySize=auto;html=1;exitX=0;exitY=0.5;exitDx=0;exitDy=0;entryX=0.5;entryY=0;entryDx=0;entryDy=0;" edge="1" parent="1" source="2" target="3">
                    <mxGeometry relative="1" as="geometry"/>
                </mxCell>
                <mxCell id="6" style="edgeStyle=orthogonalEdgeStyle;rounded=0;orthogonalLoop=1;jettySize=auto;html=1;exitX=1;exitY=0.5;exitDx=0;exitDy=0;entryX=0.5;entryY=0;entryDx=0;entryDy=0;" edge="1" parent="1" source="2" target="4">
                    <mxGeometry relative="1" as="geometry"/>
                </mxCell>
                <mxCell id="2" value="klasa" style="whiteSpace=wrap;html=1;" vertex="1" parent="1">
                    <mxGeometry x="320" y="20" width="120" height="60" as="geometry"/>
                </mxCell>
                <mxCell id="3" value="zmienne i funkcja obliczb_pierwiastki" style="whiteSpace=wrap;html=1;" vertex="1" parent="1">
                    <mxGeometry x="120" y="100" width="120" height="60" as="geometry"/>
                </mxCell>
                <mxCell id="10" style="edgeStyle=orthogonalEdgeStyle;rounded=0;orthogonalLoop=1;jettySize=auto;html=1;exitX=0.5;exitY=1;exitDx=0;exitDy=0;entryX=0.5;entryY=0;entryDx=0;entryDy=0;" edge="1" parent="1" source="4" target="9">
                    <mxGeometry relative="1" as="geometry"/>
                </mxCell>
                <mxCell id="4" value="funkcje podania wspolczninikow&lt;br&gt;wyswietlenia i przetwarzania" style="whiteSpace=wrap;html=1;" vertex="1" parent="1">
                    <mxGeometry x="500" y="90" width="120" height="60" as="geometry"/>
                </mxCell>
                <mxCell id="7" value="prywatne" style="text;html=1;align=center;verticalAlign=middle;resizable=0;points=[];autosize=1;" vertex="1" parent="1">
                    <mxGeometry x="230" y="30" width="60" height="20" as="geometry"/>
                </mxCell>
                <mxCell id="8" value="publiczne" style="text;html=1;align=center;verticalAlign=middle;resizable=0;points=[];autosize=1;" vertex="1" parent="1">
                    <mxGeometry x="470" y="30" width="70" height="20" as="geometry"/>
                </mxCell>
                <mxCell id="9" value="konstruktor&lt;br&gt;destruktor" style="whiteSpace=wrap;html=1;" vertex="1" parent="1">
                    <mxGeometry x="500" y="180" width="120" height="60" as="geometry"/>
                </mxCell>
                <mxCell id="13" style="edgeStyle=orthogonalEdgeStyle;rounded=0;orthogonalLoop=1;jettySize=auto;html=1;exitX=1;exitY=0.5;exitDx=0;exitDy=0;entryX=0;entryY=0.5;entryDx=0;entryDy=0;" edge="1" parent="1" source="11" target="12">
                    <mxGeometry relative="1" as="geometry"/>
                </mxCell>
                <mxCell id="11" value="main" style="whiteSpace=wrap;html=1;" vertex="1" parent="1">
                    <mxGeometry x="10" y="260" width="120" height="60" as="geometry"/>
                </mxCell>
                <mxCell id="15" style="edgeStyle=orthogonalEdgeStyle;rounded=0;orthogonalLoop=1;jettySize=auto;html=1;exitX=1;exitY=0.5;exitDx=0;exitDy=0;entryX=0;entryY=0.5;entryDx=0;entryDy=0;" edge="1" parent="1" source="12" target="14">
                    <mxGeometry relative="1" as="geometry"/>
                </mxCell>
                <mxCell id="12" value="nazwanie Panela jako pierwiastkowy&amp;nbsp;" style="whiteSpace=wrap;html=1;" vertex="1" parent="1">
                    <mxGeometry x="200" y="260" width="120" height="60" as="geometry"/>
                </mxCell>
                <mxCell id="14" value="pierwiastkowy przetwarzaj" style="whiteSpace=wrap;html=1;" vertex="1" parent="1">
                    <mxGeometry x="360" y="260" width="120" height="60" as="geometry"/>
                </mxCell>
                <mxCell id="18" style="edgeStyle=orthogonalEdgeStyle;rounded=0;orthogonalLoop=1;jettySize=auto;html=1;exitX=0.5;exitY=1;exitDx=0;exitDy=0;entryX=0.5;entryY=0;entryDx=0;entryDy=0;" edge="1" parent="1" source="16" target="17">
                    <mxGeometry relative="1" as="geometry"/>
                </mxCell>
                <mxCell id="16" value="podaj_wspolczynniki" style="whiteSpace=wrap;html=1;" vertex="1" parent="1">
                    <mxGeometry x="170" y="390" width="120" height="60" as="geometry"/>
                </mxCell>
                <mxCell id="17" value="wyswietlenie podanych wspolczynnikow" style="whiteSpace=wrap;html=1;" vertex="1" parent="1">
                    <mxGeometry x="170" y="490" width="120" height="60" as="geometry"/>
                </mxCell>
                <mxCell id="21" style="edgeStyle=orthogonalEdgeStyle;rounded=0;orthogonalLoop=1;jettySize=auto;html=1;exitX=0.5;exitY=1;exitDx=0;exitDy=0;entryX=0.5;entryY=0;entryDx=0;entryDy=0;" edge="1" parent="1" source="19" target="20">
                    <mxGeometry relative="1" as="geometry"/>
                </mxCell>
                <mxCell id="19" value="konstruktor" style="whiteSpace=wrap;html=1;" vertex="1" parent="1">
                    <mxGeometry x="10" y="390" width="120" height="60" as="geometry"/>
                </mxCell>
                <mxCell id="20" value="podanie przez uzytkownika a,b,c" style="whiteSpace=wrap;html=1;" vertex="1" parent="1">
                    <mxGeometry x="10" y="490" width="120" height="60" as="geometry"/>
                </mxCell>
                <mxCell id="24" style="edgeStyle=orthogonalEdgeStyle;rounded=0;orthogonalLoop=1;jettySize=auto;html=1;exitX=0.5;exitY=1;exitDx=0;exitDy=0;entryX=0.5;entryY=0;entryDx=0;entryDy=0;" edge="1" parent="1" source="22" target="23">
                    <mxGeometry relative="1" as="geometry"/>
                </mxCell>
                <mxCell id="22" value="oblicz_pierwiastki" style="whiteSpace=wrap;html=1;" vertex="1" parent="1">
                    <mxGeometry x="350" y="390" width="120" height="60" as="geometry"/>
                </mxCell>
                <mxCell id="26" style="edgeStyle=orthogonalEdgeStyle;rounded=0;orthogonalLoop=1;jettySize=auto;html=1;exitX=0.5;exitY=1;exitDx=0;exitDy=0;entryX=0.5;entryY=0;entryDx=0;entryDy=0;" edge="1" parent="1" source="23" target="25">
                    <mxGeometry relative="1" as="geometry"/>
                </mxCell>
                <mxCell id="23" value="&lt;div style=&quot;color: rgb(248 , 248 , 242) ; background-color: rgb(8 , 8 , 8) ; font-family: &amp;#34;consolas&amp;#34; , &amp;#34;courier new&amp;#34; , monospace ; font-size: 15px ; line-height: 20px&quot;&gt;&lt;div&gt;&lt;span style=&quot;color: #ffffff&quot;&gt;delta&amp;nbsp;&lt;/span&gt;&lt;span style=&quot;color: #ff5e5e&quot;&gt;=&lt;/span&gt;&lt;span style=&quot;color: #ffffff&quot;&gt;&amp;nbsp;&lt;/span&gt;&lt;span style=&quot;color: #d0d0d0&quot;&gt;(&lt;/span&gt;&lt;span style=&quot;color: #ffffff&quot;&gt;b&lt;/span&gt;&lt;span style=&quot;color: #ff5e5e&quot;&gt;*&lt;/span&gt;&lt;span style=&quot;color: #ffffff&quot;&gt;b&lt;/span&gt;&lt;span style=&quot;color: #d0d0d0&quot;&gt;)&lt;/span&gt;&lt;span style=&quot;color: #ffffff&quot;&gt;&amp;nbsp;&lt;/span&gt;&lt;span style=&quot;color: #ff5e5e&quot;&gt;*&lt;/span&gt;&lt;span style=&quot;color: #ffffff&quot;&gt;&amp;nbsp;&lt;/span&gt;&lt;span style=&quot;color: #d0d0d0&quot;&gt;4&lt;/span&gt;&lt;span style=&quot;color: #ffffff&quot;&gt;&amp;nbsp;&lt;/span&gt;&lt;span style=&quot;color: #ff5e5e&quot;&gt;*&lt;/span&gt;&lt;span style=&quot;color: #ffffff&quot;&gt;&amp;nbsp;a&amp;nbsp;&lt;/span&gt;&lt;span style=&quot;color: #ff5e5e&quot;&gt;*&lt;/span&gt;&lt;span style=&quot;color: #ffffff&quot;&gt;&amp;nbsp;c&lt;/span&gt;&lt;span style=&quot;color: #d0d0d0&quot;&gt;;&lt;/span&gt;&lt;/div&gt;&lt;div&gt;&lt;span style=&quot;color: #ffffff&quot;&gt;wynik&amp;nbsp;&lt;/span&gt;&lt;span style=&quot;color: #ff5e5e&quot;&gt;=&lt;/span&gt;&lt;span style=&quot;color: #ffffff&quot;&gt;&amp;nbsp;&lt;/span&gt;&lt;span style=&quot;color: #80cbc4&quot;&gt;sqrt&lt;/span&gt;&lt;span style=&quot;color: #d0d0d0&quot;&gt;((&lt;/span&gt;&lt;span style=&quot;color: #fffb2a&quot;&gt;float&lt;/span&gt;&lt;span style=&quot;color: #d0d0d0&quot;&gt;)&lt;/span&gt;&lt;span style=&quot;color: #ffffff&quot;&gt;delta&lt;/span&gt;&lt;span style=&quot;color: #d0d0d0&quot;&gt;);&lt;/span&gt;&lt;/div&gt;&lt;/div&gt;" style="whiteSpace=wrap;html=1;" vertex="1" parent="1">
                    <mxGeometry x="350" y="490" width="120" height="60" as="geometry"/>
                </mxCell>
                <mxCell id="25" value="&lt;div style=&quot;color: rgb(248 , 248 , 242) ; background-color: rgb(8 , 8 , 8) ; font-family: &amp;#34;consolas&amp;#34; , &amp;#34;courier new&amp;#34; , monospace ; font-size: 15px ; line-height: 20px&quot;&gt;&lt;div&gt;&lt;span style=&quot;color: #ffffff&quot;&gt;x1&amp;nbsp;&lt;/span&gt;&lt;span style=&quot;color: #ff5e5e&quot;&gt;=&lt;/span&gt;&lt;span style=&quot;color: #ffffff&quot;&gt;&amp;nbsp;&lt;/span&gt;&lt;span style=&quot;color: #d0d0d0&quot;&gt;(&lt;/span&gt;&lt;span style=&quot;color: #ff5e5e&quot;&gt;-&lt;/span&gt;&lt;span style=&quot;color: #ffffff&quot;&gt;b&lt;/span&gt;&lt;span style=&quot;color: #d0d0d0&quot;&gt;)&lt;/span&gt;&lt;span style=&quot;color: #ffffff&quot;&gt;&amp;nbsp;&lt;/span&gt;&lt;span style=&quot;color: #ff5e5e&quot;&gt;-&lt;/span&gt;&lt;span style=&quot;color: #ffffff&quot;&gt;&amp;nbsp;&lt;/span&gt;&lt;span style=&quot;color: #80cbc4&quot;&gt;sqrt&lt;/span&gt;&lt;span style=&quot;color: #d0d0d0&quot;&gt;((&lt;/span&gt;&lt;span style=&quot;color: #fffb2a&quot;&gt;float&lt;/span&gt;&lt;span style=&quot;color: #d0d0d0&quot;&gt;)&lt;/span&gt;&lt;span style=&quot;color: #ffffff&quot;&gt;delta&lt;/span&gt;&lt;span style=&quot;color: #d0d0d0&quot;&gt;)&lt;/span&gt;&lt;span style=&quot;color: #ffffff&quot;&gt;&amp;nbsp;&lt;/span&gt;&lt;span style=&quot;color: #ff5e5e&quot;&gt;/&lt;/span&gt;&lt;span style=&quot;color: #ffffff&quot;&gt;&amp;nbsp;a&amp;nbsp;&lt;/span&gt;&lt;span style=&quot;color: #ff5e5e&quot;&gt;*&lt;/span&gt;&lt;span style=&quot;color: #ffffff&quot;&gt;&amp;nbsp;a&lt;/span&gt;&lt;span style=&quot;color: #d0d0d0&quot;&gt;;&lt;/span&gt;&lt;/div&gt;&lt;div&gt;&lt;span style=&quot;color: #ffffff&quot;&gt;x2&amp;nbsp;&lt;/span&gt;&lt;span style=&quot;color: #ff5e5e&quot;&gt;=&lt;/span&gt;&lt;span style=&quot;color: #ffffff&quot;&gt;&amp;nbsp;&lt;/span&gt;&lt;span style=&quot;color: #d0d0d0&quot;&gt;(&lt;/span&gt;&lt;span style=&quot;color: #ff5e5e&quot;&gt;-&lt;/span&gt;&lt;span style=&quot;color: #ffffff&quot;&gt;b&lt;/span&gt;&lt;span style=&quot;color: #d0d0d0&quot;&gt;)&lt;/span&gt;&lt;span style=&quot;color: #ffffff&quot;&gt;&amp;nbsp;&lt;/span&gt;&lt;span style=&quot;color: #ff5e5e&quot;&gt;+&lt;/span&gt;&lt;span style=&quot;color: #ffffff&quot;&gt;&amp;nbsp;&lt;/span&gt;&lt;span style=&quot;color: #80cbc4&quot;&gt;sqrt&lt;/span&gt;&lt;span style=&quot;color: #d0d0d0&quot;&gt;((&lt;/span&gt;&lt;span style=&quot;color: #fffb2a&quot;&gt;float&lt;/span&gt;&lt;span style=&quot;color: #d0d0d0&quot;&gt;)&lt;/span&gt;&lt;span style=&quot;color: #ffffff&quot;&gt;delta&lt;/span&gt;&lt;span style=&quot;color: #d0d0d0&quot;&gt;)&lt;/span&gt;&lt;span style=&quot;color: #ffffff&quot;&gt;&amp;nbsp;&lt;/span&gt;&lt;span style=&quot;color: #ff5e5e&quot;&gt;/&lt;/span&gt;&lt;span style=&quot;color: #ffffff&quot;&gt;&amp;nbsp;a&amp;nbsp;&lt;/span&gt;&lt;span style=&quot;color: #ff5e5e&quot;&gt;*&lt;/span&gt;&lt;span style=&quot;color: #ffffff&quot;&gt;&amp;nbsp;a&lt;/span&gt;&lt;span style=&quot;color: #d0d0d0&quot;&gt;;&lt;/span&gt;&lt;/div&gt;&lt;/div&gt;" style="whiteSpace=wrap;html=1;" vertex="1" parent="1">
                    <mxGeometry x="350" y="600" width="120" height="60" as="geometry"/>
                </mxCell>
                <mxCell id="32" style="edgeStyle=orthogonalEdgeStyle;rounded=0;orthogonalLoop=1;jettySize=auto;html=1;exitX=0.5;exitY=1;exitDx=0;exitDy=0;entryX=0.5;entryY=0;entryDx=0;entryDy=0;" edge="1" parent="1" source="27" target="31">
                    <mxGeometry relative="1" as="geometry"/>
                </mxCell>
                <mxCell id="27" value="wyswietl_wynik" style="whiteSpace=wrap;html=1;" vertex="1" parent="1">
                    <mxGeometry x="530" y="390" width="120" height="60" as="geometry"/>
                </mxCell>
                <mxCell id="30" style="edgeStyle=orthogonalEdgeStyle;rounded=0;orthogonalLoop=1;jettySize=auto;html=1;exitX=0.5;exitY=1;exitDx=0;exitDy=0;entryX=0.5;entryY=0;entryDx=0;entryDy=0;" edge="1" parent="1" source="28" target="29">
                    <mxGeometry relative="1" as="geometry"/>
                </mxCell>
                <mxCell id="28" value="destruktor" style="whiteSpace=wrap;html=1;" vertex="1" parent="1">
                    <mxGeometry x="690" y="390" width="120" height="60" as="geometry"/>
                </mxCell>
                <mxCell id="29" value="wyczyszczenie wszystkich danych" style="whiteSpace=wrap;html=1;" vertex="1" parent="1">
                    <mxGeometry x="690" y="490" width="120" height="60" as="geometry"/>
                </mxCell>
                <mxCell id="31" value="wyswietlenie delty,x1,x2 oraz wyniku po pierwiastkwoaniu" style="whiteSpace=wrap;html=1;" vertex="1" parent="1">
                    <mxGeometry x="530" y="490" width="120" height="60" as="geometry"/>
                </mxCell>
                <mxCell id="35" style="edgeStyle=orthogonalEdgeStyle;rounded=0;orthogonalLoop=1;jettySize=auto;html=1;exitX=1;exitY=0.5;exitDx=0;exitDy=0;entryX=0;entryY=0.5;entryDx=0;entryDy=0;" edge="1" parent="1" source="33" target="34">
                    <mxGeometry relative="1" as="geometry"/>
                </mxCell>
                <mxCell id="33" value="przetwarzaj" style="whiteSpace=wrap;html=1;" vertex="1" parent="1">
                    <mxGeometry x="270" y="700" width="120" height="60" as="geometry"/>
                </mxCell>
                <mxCell id="34" value="wyswietlenie wszystkich funkcji" style="whiteSpace=wrap;html=1;" vertex="1" parent="1">
                    <mxGeometry x="490" y="700" width="120" height="60" as="geometry"/>
                </mxCell>
            </root>
        </mxGraphModel>
    </diagram>
</mxfile>